<svg width="16" height="16" viewBox="0 0 16 16" fill="none" xmlns="http://www.w3.org/2000/svg">
<path fill-rule="evenodd" clip-rule="evenodd" d="M8.00003 1.33337C4.31816 1.33337 1.33337 4.31812 1.33337 8.00003C1.33337 11.6819 4.31816 14.6667 8.00003 14.6667C11.682 14.6667 14.6667 11.6819 14.6667 8.00003C14.6667 4.31812 11.682 1.33337 8.00003 1.33337ZM8.00003 13.3334C5.05925 13.3334 2.66672 10.9408 2.66672 8.00003C2.66672 5.05922 5.05922 2.66672 8.00003 2.66672C10.9409 2.66672 13.3334 5.05922 13.3334 8.00003C13.3334 10.9408 10.9409 13.3334 8.00003 13.3334ZM8.83484 5.33337C8.83484 5.81675 8.48291 6.16672 8.00681 6.16672C7.51147 6.16672 7.16816 5.81672 7.16816 5.32412C7.16816 4.85069 7.52075 4.50006 8.00681 4.50006C8.48291 4.50006 8.83484 4.85069 8.83484 5.33337ZM7.33484 7.33337H8.66816V11.3334H7.33484V7.33337Z" fill="black"/>
</svg>
