<?xml version="1.0" standalone="no"?>
<!DOCTYPE svg PUBLIC "-//W3C//DTD SVG 20010904//EN"
 "http://www.w3.org/TR/2001/REC-SVG-20010904/DTD/svg10.dtd">
<svg version="1.0" xmlns="http://www.w3.org/2000/svg"
 width="300.000000pt" height="300.000000pt" viewBox="0 0 300.000000 300.000000"
 preserveAspectRatio="xMidYMid meet">
<metadata>
Created by potrace 1.10, written by Peter Selinger 2001-2011
</metadata>
<g transform="translate(0.000000,300.000000) scale(0.100000,-0.100000)"
fill="#000000" stroke="none">
<path d="M1474 2694 c-17 -27 -58 -83 -91 -124 -67 -84 -133 -178 -133 -190 0
-5 -17 -14 -37 -21 -58 -18 -182 -80 -248 -124 -222 -148 -400 -416 -445 -671
-20 -112 -8 -327 24 -443 61 -217 208 -422 397 -549 107 -72 259 -135 394
-163 85 -18 274 -15 369 5 326 71 600 298 719 598 54 134 71 230 71 388 -1
214 -43 359 -153 526 -135 204 -311 345 -532 428 -33 13 -50 27 -61 49 -9 18
-62 93 -119 168 -57 75 -109 145 -114 154 -9 15 -15 11 -41 -31z m96 -94 c14
-19 43 -56 65 -84 23 -28 56 -74 74 -103 18 -29 41 -55 52 -58 42 -14 99 -182
107 -317 6 -101 -9 -186 -44 -267 l-25 -56 -19 25 c-10 14 -25 25 -32 25 -7 1
-22 6 -34 12 -11 7 -40 14 -64 17 -23 3 -45 7 -47 10 -13 12 29 52 87 81 36
18 76 42 90 54 16 14 1 9 -41 -14 -36 -19 -71 -35 -77 -35 -7 0 -12 16 -12 39
0 22 -5 41 -12 43 -7 3 13 19 43 36 58 34 99 66 99 77 0 4 -29 -14 -65 -39
-36 -25 -70 -46 -76 -46 -5 0 -19 11 -31 25 -19 22 -70 41 -105 38 -7 0 -22
-1 -34 -2 -12 0 -36 -16 -55 -35 -18 -18 -36 -31 -40 -27 -4 3 -4 -2 -1 -11 4
-10 2 -18 -3 -18 -6 0 -10 -20 -10 -44 0 -26 -5 -46 -12 -49 -7 -2 -1 -8 13
-12 23 -6 56 -51 46 -62 -2 -2 -31 -8 -63 -13 -32 -5 -60 -14 -62 -20 -2 -6
-8 -7 -14 -4 -6 4 -21 -6 -33 -22 l-24 -29 -24 56 c-14 31 -31 84 -38 118 -30
157 29 430 103 470 14 7 37 31 51 54 15 23 67 92 115 153 l87 112 20 -23 c11
-12 31 -37 45 -55z m-424 -378 c-20 -66 -21 -68 -32 -43 -6 14 -23 32 -38 40
-24 13 -28 13 -45 -5 -13 -15 -16 -26 -9 -44 7 -19 4 -29 -19 -51 -27 -27 -30
-27 -75 -16 -45 12 -46 13 -30 34 33 41 245 169 262 158 4 -3 -2 -36 -14 -73z
m835 8 c82 -49 139 -93 139 -108 0 -5 -18 -14 -40 -20 -37 -9 -44 -8 -71 15
-23 20 -29 31 -24 50 7 28 -10 63 -31 63 -8 0 -27 -12 -41 -26 -14 -14 -29
-22 -33 -17 -12 12 -39 97 -34 105 6 10 42 -7 135 -62z m-11 -46 c0 -8 -6 -14
-14 -14 -35 0 -30 -52 6 -71 18 -10 20 -9 15 5 -4 9 -2 16 4 16 12 0 31 -49
23 -61 -3 -5 -12 -2 -20 6 -9 8 -22 15 -29 15 -8 0 -21 13 -30 30 -14 26 -14
34 -1 65 11 25 19 33 30 29 9 -3 16 -12 16 -20z m-884 -13 c13 -34 -6 -91 -30
-91 -8 0 -21 -7 -30 -15 -8 -8 -17 -11 -20 -6 -8 12 11 61 23 61 6 0 8 -7 4
-16 -5 -14 -3 -15 15 -5 26 14 32 71 7 71 -8 0 -15 7 -15 15 0 27 35 16 46
-14z m-124 -102 c43 -22 78 -67 78 -101 0 -13 -19 -55 -42 -94 -23 -38 -48
-85 -55 -104 -15 -43 -17 -129 -3 -166 13 -33 6 -44 -10 -15 -37 70 -17 186
50 289 23 36 40 75 40 91 0 40 -66 99 -120 107 -22 4 -40 11 -40 16 0 13 56 0
102 -23z m1188 21 c0 -5 -9 -10 -20 -10 -33 0 -85 -26 -114 -56 -38 -41 -34
-77 19 -157 46 -72 71 -156 62 -211 -7 -40 -26 -90 -33 -84 -2 3 0 17 6 32 26
70 6 164 -58 271 -47 77 -52 110 -21 149 36 45 159 97 159 66z m-190 -58 c0
-7 -6 -11 -12 -8 -7 3 -21 9 -30 12 -19 7 -31 31 -23 45 8 12 65 -31 65 -49z
m-850 30 c0 -19 -56 -46 -65 -32 -5 8 43 49 58 50 4 0 7 -8 7 -18z m-215 -6
c19 -8 48 -30 64 -48 34 -36 34 -59 2 -107 -10 -14 -26 -38 -35 -53 -12 -21
-24 -28 -49 -28 -17 0 -49 -4 -69 -9 -40 -9 -48 -2 -23 23 24 23 19 55 -10 62
-30 8 -44 -1 -27 -18 18 -18 14 -56 -7 -68 -12 -6 -22 -26 -26 -50 -6 -34 -9
-39 -21 -29 -25 20 -15 -5 17 -44 37 -45 49 -46 152 -2 10 4 17 3 17 -4 0 -16
-67 -41 -111 -41 -32 0 -43 6 -70 38 l-31 38 -36 -33 c-31 -29 -34 -36 -29
-72 4 -34 2 -42 -19 -56 -23 -15 -24 -15 -24 11 0 40 29 131 71 223 33 71 41
82 54 71 8 -7 15 -19 15 -27 0 -23 35 -11 38 13 2 15 -4 23 -19 27 -12 3 -19
12 -17 19 5 13 11 15 64 17 25 1 33 6 38 26 5 21 68 75 88 75 12 0 38 -56 38
-81 0 -32 10 -18 12 17 1 16 6 32 10 35 4 3 -6 18 -23 35 -24 23 -39 29 -75
29 -28 0 -44 4 -44 13 0 16 43 15 85 -2z m1305 0 c0 -11 -9 -13 -34 -9 -37 6
-93 -20 -100 -47 -3 -8 -1 -33 4 -55 7 -36 8 -37 9 -10 1 17 10 41 20 54 l18
24 36 -22 c20 -12 42 -35 49 -51 9 -22 20 -30 40 -31 16 -1 33 -3 38 -4 6 -1
15 -3 20 -4 19 -2 10 -22 -15 -31 -28 -11 -33 -35 -9 -44 24 -9 34 -7 34 8 0
7 6 19 14 25 22 19 68 -78 111 -236 21 -74 18 -88 -14 -64 -22 17 -23 21 -12
52 11 33 10 35 -28 70 l-39 37 -32 -39 c-26 -33 -37 -39 -69 -39 -43 0 -111
25 -111 40 0 13 1 13 51 -10 60 -27 76 -25 110 11 32 34 36 49 15 49 -12 0
-29 36 -30 65 -1 6 -9 18 -19 28 -17 17 -17 20 -3 42 22 33 20 37 -11 33 -22
-2 -29 -10 -34 -35 -5 -25 -3 -33 7 -33 8 0 14 -6 14 -14 0 -12 -7 -12 -37 -4
-20 5 -49 8 -65 6 -26 -4 -32 1 -73 68 -36 60 -42 76 -31 86 7 8 18 24 25 37
23 43 151 83 151 47z m-1367 -32 c11 -4 4 -16 -28 -50 -24 -24 -48 -44 -54
-44 -24 0 -21 30 6 64 27 35 45 42 76 30z m257 -24 c-18 -33 -40 -112 -40
-142 0 -16 -4 -28 -10 -28 -5 0 -10 8 -10 18 0 27 38 152 51 168 17 20 23 10
9 -16z m471 13 c42 -25 63 -75 49 -117 -6 -18 -22 -44 -35 -56 l-25 -23 0
-211 0 -211 -35 -22 c-19 -13 -37 -23 -40 -23 -3 0 -5 104 -5 230 l0 231 -35
35 c-28 27 -35 43 -35 73 0 85 88 137 161 94z m386 -45 c28 -69 40 -138 24
-138 -6 0 -11 13 -11 28 0 34 -34 138 -52 160 -11 13 -10 14 2 10 8 -2 25 -29
37 -60z m302 30 c17 -18 31 -41 31 -50 0 -30 -33 -20 -74 22 -21 22 -43 40
-47 40 -5 0 -9 5 -9 10 0 6 16 10 34 10 26 0 42 -8 65 -32z m-1146 -132 c-20
-74 -12 -170 20 -234 21 -42 24 -57 16 -79 -11 -29 -11 -29 -33 14 -14 28 -14
32 -1 27 19 -8 19 -3 0 32 -28 55 -37 129 -25 202 6 37 11 74 12 82 0 8 2 22
5 30 4 12 7 11 12 -4 4 -10 1 -42 -6 -70z m827 -36 c9 -51 9 -83 1 -120 -11
-53 -44 -124 -61 -135 -15 -9 -13 -4 21 70 29 61 31 72 26 143 -3 42 -9 88
-13 101 -5 16 -4 22 4 18 5 -4 16 -38 22 -77z m-775 -40 c29 -58 31 -80 9
-122 -20 -39 -34 -26 -46 44 -7 47 -3 128 8 128 2 0 15 -22 29 -50z m743 -29
c-3 -37 -11 -77 -18 -90 l-12 -23 -19 28 c-10 16 -16 38 -13 49 12 45 49 113
57 108 5 -3 7 -36 5 -72z m-859 32 c3 -62 20 -182 29 -206 7 -15 31 -49 55
-75 46 -49 72 -90 64 -99 -9 -9 -66 40 -60 51 3 6 3 8 -1 4 -5 -4 -24 2 -43
13 -19 11 -32 15 -28 9 14 -23 -15 -8 -39 21 -79 93 -84 185 -14 265 35 39 37
40 37 17z m970 -18 c46 -53 57 -100 37 -166 -16 -56 -69 -131 -89 -127 -15 3
-77 -22 -77 -31 0 -4 -14 -15 -30 -24 l-30 -18 12 28 c6 15 29 46 49 68 56 60
79 117 79 203 0 46 4 72 11 72 8 0 10 -25 7 -82 -5 -88 -23 -137 -73 -197 -31
-36 -15 -42 20 -7 15 15 26 20 29 13 6 -16 42 26 66 78 34 70 21 134 -38 198
-14 15 -21 27 -15 27 6 0 25 -16 42 -35z m-1109 17 c0 -4 -28 -14 -62 -22 -54
-12 -58 -15 -31 -18 18 -2 42 2 53 8 12 6 24 9 27 7 3 -3 -10 -13 -27 -22 -31
-16 -44 -16 -81 -1 -10 4 -23 0 -33 -10 -9 -9 -20 -13 -23 -10 -14 13 34 45
87 59 64 18 90 20 90 9z m1285 -6 c67 -17 95 -33 95 -53 0 -14 -2 -14 -19 1
-16 14 -23 15 -41 6 -25 -13 -73 -5 -91 16 -7 9 -8 14 -1 14 6 0 14 -4 17 -10
3 -5 23 -10 43 -10 46 1 26 15 -35 25 -24 4 -43 11 -43 16 0 12 16 11 75 -5z
m-745 -30 c0 -3 -29 -19 -64 -35 -35 -17 -71 -43 -81 -57 -48 -74 -21 -165 70
-233 30 -23 63 -53 72 -68 17 -25 16 -26 -12 -49 -17 -13 -33 -24 -37 -24 -15
0 -111 84 -148 131 -100 127 -71 273 65 323 37 13 135 22 135 12z m290 -23
c67 -35 91 -67 98 -132 12 -126 -59 -220 -252 -335 -63 -38 -123 -77 -131 -86
-29 -32 -29 -81 -2 -121 24 -36 24 -37 5 -53 -23 -20 -39 -13 -73 34 -32 43
-34 119 -6 166 22 35 85 89 151 126 68 39 181 139 202 178 45 86 13 165 -87
212 -36 16 -65 32 -65 34 0 2 24 4 53 4 39 0 68 -8 107 -27z m535 -33 c0 -19
-47 -25 -77 -9 -22 12 -22 12 -3 19 34 12 80 6 80 -10z m-1453 -6 c-25 -17
-63 -16 -70 4 -2 8 10 12 44 12 47 0 48 -1 26 -16z m618 -35 c3 -19 3 -48 -1
-65 -3 -18 -3 -38 2 -45 5 -8 3 -16 -3 -20 -9 -6 -8 -11 1 -22 8 -11 9 -17 1
-22 -6 -4 -8 -15 -5 -26 4 -10 4 -19 0 -19 -12 0 -85 53 -85 62 0 6 11 3 25
-6 28 -18 35 -20 35 -7 0 5 -15 16 -33 24 -37 18 -73 54 -64 63 4 4 14 1 24
-7 15 -13 15 -11 -1 13 -16 24 -16 29 -3 42 8 8 18 12 22 8 4 -4 5 2 3 13 -3
14 5 25 27 37 39 22 49 18 55 -23z m217 25 c16 -4 22 -11 18 -22 -7 -20 13
-42 32 -35 13 5 14 3 3 -17 -10 -18 -9 -24 1 -31 11 -6 9 -13 -9 -32 -13 -13
-22 -30 -20 -37 4 -16 -79 -77 -89 -65 -5 4 -2 10 5 12 15 6 16 33 0 33 -6 0
-3 8 7 20 16 18 16 20 1 26 -9 3 -13 11 -9 17 10 16 11 60 1 73 -13 18 2 76
19 70 8 -4 26 -9 40 -12z m-966 -24 c25 -14 24 -42 -1 -65 -36 -33 -83 13 -54
53 17 25 27 27 55 12z m1693 -3 c22 -16 18 -55 -6 -71 -13 -8 -22 -6 -37 8
-26 23 -27 52 -3 65 22 13 25 13 46 -2z m-1479 -36 c4 -22 -10 -27 -35 -11
-13 8 -12 11 5 24 23 17 24 16 30 -13z m1255 9 c13 -9 13 -11 0 -20 -15 -10
-40 -14 -40 -6 0 11 13 36 19 36 3 0 13 -5 21 -10z m-1283 -51 c33 -12 105
-60 99 -66 -2 -2 -29 10 -59 27 -59 33 -76 35 -197 26 -74 -5 -74 -5 -16 4 32
5 61 12 64 15 9 9 80 5 109 -6z m1453 -8 l55 -8 -55 -2 c-30 0 -70 3 -87 8
-39 11 -91 -1 -144 -35 -21 -13 -41 -24 -44 -24 -16 0 11 23 58 51 56 32 73
33 217 10z m-1565 -45 c134 -5 204 -24 320 -84 126 -66 255 -222 242 -291 -11
-51 4 -99 43 -144 l37 -42 -11 -57 -10 -57 -56 -7 c-149 -20 -261 5 -377 85
-73 49 -126 105 -196 203 -47 66 -63 102 -107 235 -28 87 -54 164 -57 170 -3
9 3 10 24 4 15 -5 82 -12 148 -15z m1675 16 c0 -4 -4 -12 -9 -17 -5 -6 -23
-59 -41 -120 -49 -171 -87 -244 -194 -369 -122 -143 -291 -218 -450 -201 -90
10 -96 12 -96 45 0 16 -5 40 -11 54 -10 22 -7 30 24 68 49 60 60 92 53 158 -6
51 -4 60 25 103 43 65 129 139 208 180 112 58 188 78 331 86 71 4 132 10 136
14 10 9 24 9 24 -1z m-1824 -159 c52 -163 52 -166 5 -115 -14 16 -34 32 -43
35 -10 4 -18 17 -19 29 -1 13 -2 37 -4 53 -4 41 6 115 15 115 5 0 25 -53 46
-117z m1855 36 c2 -94 0 -107 -20 -114 -10 -3 -31 -17 -45 -32 -31 -30 -35
-14 -12 42 8 19 17 49 20 68 3 19 8 40 10 48 26 72 27 74 36 58 5 -9 10 -40
11 -70z m-1108 -165 c-9 -23 -27 -16 -50 21 -31 47 -29 49 16 19 25 -16 38
-31 34 -40z m351 20 c-12 -17 -20 -22 -27 -15 -8 8 -5 15 9 26 29 22 36 18 18
-11z m-1115 -12 c5 -10 25 -27 45 -37 20 -11 42 -34 53 -57 10 -21 24 -38 31
-38 6 0 12 -5 12 -11 0 -13 50 -79 99 -131 40 -43 37 -47 -11 -19 -18 11 -49
27 -69 35 -33 14 -39 14 -73 -3 l-36 -19 -15 28 c-21 41 -19 50 14 50 16 0 39
9 52 21 23 19 23 20 2 10 -29 -14 -66 -14 -81 1 -17 17 -15 58 3 58 8 0 15 -7
15 -15 0 -8 -5 -15 -12 -15 -9 0 -9 -3 -1 -11 15 -15 65 -7 71 11 3 8 1 12 -3
7 -12 -11 -45 23 -45 47 -1 12 -17 33 -40 51 -21 17 -39 36 -40 43 0 18 18 15
29 -6z m1861 10 c0 -12 -51 -58 -85 -75 -16 -9 -24 -16 -17 -17 7 0 11 -4 8
-9 -3 -5 8 -14 25 -20 24 -8 30 -16 27 -33 -5 -35 -49 -46 -95 -24 -20 10 -32
20 -26 24 5 4 18 22 27 40 10 18 37 47 62 65 24 17 44 37 44 44 0 7 7 13 15
13 8 0 15 -4 15 -8z m-791 -55 c12 -24 21 -56 21 -72 0 -50 -38 -113 -97 -158
-127 -96 -126 -95 -120 -154 3 -29 2 -53 -3 -53 -14 0 -50 65 -50 90 0 42 33
90 90 132 95 70 122 132 83 187 -16 23 -15 25 13 48 16 12 32 23 36 23 3 0 16
-19 27 -43z m-1051 -20 c8 -9 6 -16 -7 -24 -22 -13 -31 -8 -31 19 0 21 23 24
38 5z m937 -61 c-6 -53 -12 -68 -31 -81 l-24 -15 0 69 c0 67 1 71 28 85 15 8
29 13 30 11 2 -2 1 -33 -3 -69z m895 62 c0 -7 -4 -19 -9 -27 -11 -17 -25 3
-17 24 7 18 26 20 26 3z m-141 -120 c11 -11 12 -10 6 2 -6 11 -3 10 12 -2 11
-10 32 -18 48 -18 26 0 27 -2 21 -32 -8 -41 -12 -44 -39 -29 -35 19 -78 16
-125 -8 -53 -27 -53 -14 -2 41 22 24 40 46 40 51 0 11 25 8 39 -5z m-1487
-134 c31 -19 83 -43 115 -53 32 -11 89 -31 128 -46 38 -15 80 -25 92 -22 13 2
23 0 23 -6 0 -8 39 -7 178 5 6 1 12 6 12 12 0 6 20 -10 44 -36 37 -38 45 -53
45 -84 0 -22 5 -55 10 -74 15 -48 14 -90 -4 -124 -9 -16 -13 -31 -10 -34 3 -3
11 8 17 26 16 41 44 47 75 16 29 -29 21 -54 -9 -27 -24 22 -21 22 -47 -1 -15
-14 -18 -23 -11 -37 14 -26 13 -28 -17 -24 -16 2 -36 4 -46 4 -10 1 -16 4 -14
9 3 4 -16 6 -41 5 -32 -2 -77 8 -142 30 -92 31 -95 33 -93 61 1 16 11 38 22
50 11 12 23 35 27 51 7 30 55 85 103 117 38 26 3 23 -47 -3 -32 -17 -46 -35
-78 -101 l-39 -80 -14 48 c-11 39 -11 58 -2 92 16 61 14 71 -9 35 -25 -42 -34
-42 -26 -1 4 19 3 28 -3 23 -5 -6 -11 -31 -13 -57 -4 -34 -2 -45 7 -42 20 8
26 -67 7 -88 -20 -24 -35 -23 -70 7 -17 14 -33 25 -36 25 -11 0 -66 43 -66 52
0 5 10 13 23 18 l22 9 -22 0 c-27 1 -31 21 -5 21 10 0 27 7 38 15 18 14 17 14
-14 15 -18 0 -41 6 -52 12 -16 10 -23 10 -36 -4 -16 -16 -20 -14 -57 20 -40
38 -110 133 -102 140 2 2 27 -10 56 -28 54 -33 124 -46 163 -30 17 7 13 9 -19
9 -83 2 -165 45 -196 103 -10 19 -8 20 33 13 23 -4 69 -22 100 -41z m1519 29
c-30 -56 -131 -108 -192 -100 -22 3 -42 1 -45 -4 -3 -5 3 -9 13 -10 10 -1 36
-2 58 -4 41 -3 89 13 138 47 15 11 27 15 27 11 0 -21 -60 -102 -98 -131 -36
-29 -43 -31 -61 -20 -16 10 -23 10 -33 0 -6 -6 -27 -12 -46 -12 -30 0 -33 -2
-22 -15 14 -17 70 -21 70 -5 0 6 7 10 15 10 8 0 15 -8 15 -19 0 -15 -8 -19
-45 -19 -35 -1 -52 5 -78 26 -68 58 -65 58 -53 -7 6 -32 17 -66 25 -75 21 -25
25 -12 6 18 -30 46 -18 56 44 36 30 -9 57 -22 58 -27 5 -13 -44 -49 -78 -58
-38 -9 -58 14 -70 80 -6 33 -17 71 -24 85 -13 24 -14 23 -9 -15 l5 -40 -20 24
-21 23 6 -33 c3 -19 8 -40 10 -47 2 -7 -1 -36 -7 -65 l-12 -51 -37 73 c-20 41
-40 69 -43 64 -7 -12 27 -98 48 -123 8 -8 16 -27 20 -42 6 -22 2 -29 -22 -41
-43 -23 -173 -59 -218 -62 -22 -1 -57 -5 -77 -9 -34 -7 -38 -6 -38 12 0 29 12
33 44 17 l28 -15 -31 35 c-40 46 -47 75 -30 144 7 31 12 68 11 83 -2 20 7 38
35 68 l39 40 80 -4 c43 -3 81 -5 84 -6 3 -2 10 -1 15 0 6 1 27 4 49 6 54 5
116 23 116 34 0 4 33 18 73 30 39 13 98 38 129 57 53 33 99 50 141 52 14 1 16
-3 8 -16z m-726 -86 c0 -31 -7 -52 -25 -74 -32 -41 -45 -41 -34 0 4 17 8 51 8
75 1 26 7 46 16 52 22 14 35 -5 35 -53z m-91 -297 l-7 -35 -7 30 c-14 55 -11
290 3 304 10 10 13 -16 15 -126 2 -76 0 -154 -4 -173z m-644 130 c0 -11 -7
-20 -15 -20 -8 0 -15 9 -15 20 0 11 7 20 15 20 8 0 15 -9 15 -20z m1109 -72
c7 -20 19 -39 28 -42 12 -5 13 -9 3 -21 -33 -40 -78 1 -62 58 5 17 7 39 4 47
-3 10 -1 12 6 5 5 -5 15 -26 21 -47z"/>
<path d="M1484 2490 c-6 -71 -11 -86 -40 -125 -36 -47 -59 -51 -67 -12 -3 12
-4 4 -4 -18 2 -32 -1 -40 -15 -39 -23 2 -23 -10 3 -64 29 -58 110 -123 149
-118 65 7 181 147 148 179 -7 8 -19 12 -27 9 -8 -3 -11 0 -8 6 4 5 -6 15 -21
21 -45 20 -72 73 -72 144 0 34 -5 69 -10 77 -8 10 -9 -7 -4 -57 7 -79 -3 -128
-16 -83 -4 14 -5 55 -2 93 2 37 2 67 -1 67 -3 0 -9 -36 -13 -80z m56 -157 l0
-43 40 0 c39 0 40 -1 40 -36 0 -36 0 -36 -40 -32 l-40 4 0 -38 c0 -37 -1 -38
-35 -38 -34 0 -35 1 -35 38 l0 38 -40 -4 c-40 -4 -40 -4 -40 32 0 35 1 36 40
36 l40 0 0 43 c0 41 0 42 35 42 35 0 35 -1 35 -42z"/>
<path d="M1677 2253 c-3 -18 -23 -51 -44 -74 -26 -29 -31 -39 -16 -31 43 23
82 91 71 124 -3 7 -7 -2 -11 -19z"/>
<path d="M1320 2263 c-1 -36 49 -113 74 -113 5 0 -2 12 -17 28 -14 15 -33 43
-41 62 -8 19 -15 30 -16 23z"/>
<path d="M1264 2215 c17 -36 91 -108 126 -124 17 -8 10 1 -20 29 -25 22 -62
60 -83 83 -34 37 -36 38 -23 12z"/>
<path d="M1230 2220 c0 -37 68 -118 123 -147 41 -21 44 -9 5 15 -42 26 -92 79
-112 117 -9 17 -16 23 -16 15z"/>
<path d="M1729 2203 c-8 -10 -42 -41 -75 -70 -32 -29 -54 -52 -47 -53 14 0
120 95 134 121 12 24 8 24 -12 2z"/>
<path d="M1726 2153 c-21 -23 -59 -56 -84 -73 -47 -31 -45 -41 4 -16 33 18 89
70 111 103 26 39 11 32 -31 -14z"/>
<path d="M1220 2086 c0 -6 90 -70 121 -86 42 -23 4 15 -56 55 -51 33 -65 40
-65 31z"/>
<path d="M1200 2074 c0 -16 62 -69 102 -87 56 -26 57 -20 2 14 -27 17 -61 43
-76 57 -16 14 -28 21 -28 16z"/>
<path d="M1765 2044 c-22 -20 -56 -44 -75 -54 -19 -11 -30 -19 -23 -20 22 0
87 40 116 72 24 28 32 39 25 38 -2 -1 -21 -17 -43 -36z"/>
<path d="M1217 1949 c7 -9 36 -28 65 -43 39 -20 46 -22 28 -7 -37 30 -107 68
-93 50z"/>
<path d="M1200 1926 c0 -8 97 -66 111 -66 8 1 -7 12 -33 25 -26 14 -49 29 -53
35 -6 10 -25 14 -25 6z"/>
<path d="M1783 1915 c-11 -8 -43 -26 -69 -39 -27 -14 -43 -26 -36 -26 22 0 76
27 107 54 33 28 32 35 -2 11z"/>
<path d="M856 1969 c-46 -36 -51 -57 -22 -88 15 -15 23 -31 19 -36 -5 -4 2 -2
14 4 38 19 55 78 37 125 -8 21 -16 20 -48 -5z m19 -70 c0 -7 -8 -15 -17 -17
-18 -3 -25 18 -11 32 10 10 28 1 28 -15z"/>
<path d="M2106 1974 c-12 -32 -5 -82 15 -108 20 -25 22 -26 34 -9 12 16 11 19
-7 25 -20 8 -21 29 0 36 17 5 32 -40 19 -56 -8 -10 -7 -16 4 -22 19 -12 36 30
17 42 -11 6 -10 10 1 17 17 11 2 41 -35 70 -32 25 -40 26 -48 5z"/>
<path d="M1002 1750 c-29 -45 -36 -73 -29 -117 9 -52 59 -129 81 -125 10 2 27
-4 37 -14 26 -24 24 -9 -5 29 -37 48 -48 84 -55 177 l-6 85 -23 -35z"/>
<path d="M641 1641 c-17 -11 -7 -41 13 -41 15 0 29 27 20 41 -7 11 -15 11 -33
0z"/>
<path d="M2332 1628 c2 -13 11 -24 21 -26 22 -4 35 27 16 39 -25 16 -41 10
-37 -13z"/>
<path d="M731 1438 c24 -17 68 -51 97 -76 41 -35 52 -41 52 -26 0 26 -42 96
-60 102 -13 5 -13 3 -1 -11 19 -24 7 -21 -56 13 -71 39 -88 38 -32 -2z"/>
<path d="M691 1423 c18 -21 52 -54 74 -75 l40 -38 -32 9 c-18 5 -37 12 -43 16
-5 3 -10 4 -10 1 0 -2 16 -14 35 -26 25 -15 47 -20 80 -18 l45 3 -104 83 c-57
45 -108 82 -112 82 -4 0 8 -17 27 -37z"/>
<path d="M840 1453 c0 -7 4 -13 9 -13 13 0 51 -82 51 -111 0 -23 42 -67 113
-118 19 -13 20 -12 13 25 -8 42 -55 148 -63 140 -3 -2 3 -20 12 -40 17 -36 14
-73 -5 -61 -16 10 -60 82 -60 98 0 17 -69 96 -70 80z"/>
<path d="M1015 1328 c14 -25 29 -70 32 -99 4 -32 14 -60 26 -72 14 -14 17 -24
11 -35 -15 -24 -94 -51 -154 -52 -52 -2 -53 -2 -20 -11 41 -10 96 -4 145 16
48 21 58 19 45 -4 -11 -22 -43 -31 -115 -33 l-50 -1 34 -11 c23 -7 50 -6 88 2
84 17 87 22 80 123 -4 47 -11 97 -17 110 -8 19 -9 13 -5 -32 2 -31 2 -59 -2
-62 -11 -11 -43 24 -43 47 0 41 -20 92 -50 126 l-30 35 25 -47z"/>
<path d="M690 1338 c0 -10 35 -45 64 -63 16 -11 55 -22 88 -26 57 -7 103 -32
92 -50 -3 -5 -29 -9 -57 -10 -52 -1 -52 -1 -17 -11 25 -7 51 -6 89 2 l54 12
-48 41 c-45 38 -50 40 -105 38 -63 -3 -89 7 -132 47 -16 14 -28 23 -28 20z"/>
<path d="M1128 1293 c13 -25 32 -141 32 -195 0 -32 6 -50 20 -63 11 -10 18
-20 16 -24 -2 -3 10 -17 26 -30 l29 -23 -6 23 c-3 13 -12 58 -20 99 -8 41 -13
55 -10 30 2 -25 0 -51 -4 -58 -12 -19 -28 27 -41 116 -10 71 -33 142 -45 142
-3 0 -2 -8 3 -17z"/>
<path d="M985 1170 c-11 -5 -49 -9 -84 -9 -89 -1 -70 -12 25 -14 44 -1 79 -7
81 -13 2 -5 -23 -20 -54 -32 l-58 -22 45 6 c25 3 65 15 90 26 l45 19 -28 25
c-31 26 -33 27 -62 14z"/>
<path d="M1236 1145 c3 -16 11 -61 18 -100 13 -66 14 -67 15 -26 1 41 -8 84
-30 136 -6 15 -7 12 -3 -10z"/>
<path d="M1120 1020 c-14 -4 -56 -9 -95 -10 -58 -1 -66 -3 -45 -11 14 -6 59
-8 101 -5 60 4 80 2 89 -9 19 -23 5 -42 -37 -53 -31 -8 -34 -10 -12 -11 15 -1
43 6 63 14 l37 16 -31 39 c-18 22 -35 40 -38 39 -4 -1 -18 -5 -32 -9z"/>
<path d="M1286 978 c14 -47 32 -86 44 -93 9 -6 9 -3 2 11 -6 11 -10 22 -11 27
-1 12 -33 77 -38 77 -2 0 -1 -10 3 -22z"/>
<path d="M1205 920 c-18 -12 -49 -21 -80 -22 -47 -1 -48 -2 -10 -5 22 -3 57 1
78 7 31 9 44 8 69 -4 44 -22 46 -20 13 14 -16 17 -31 30 -34 30 -3 0 -19 -9
-36 -20z"/>
<path d="M2245 1439 c-44 -25 -51 -26 -56 -11 -5 14 -8 13 -22 -8 -20 -31 -49
-100 -42 -100 3 0 34 24 68 53 34 28 76 62 92 74 41 31 20 27 -40 -8z"/>
<path d="M2236 1382 l-109 -87 38 -3 c41 -4 110 22 119 43 3 8 -9 6 -34 -6
-22 -11 -42 -19 -46 -19 -3 0 22 28 57 63 63 62 95 97 88 97 -2 0 -53 -40
-113 -88z"/>
<path d="M2134 1428 c-25 -30 -44 -64 -44 -80 0 -18 -48 -68 -65 -68 -12 0
-10 9 6 46 15 35 16 44 5 35 -18 -15 -56 -112 -56 -142 0 -20 0 -20 28 1 71
56 102 92 102 117 0 14 11 46 25 70 29 48 28 54 -1 21z"/>
<path d="M1980 1330 c-12 -17 -26 -47 -32 -68 -14 -53 -39 -102 -51 -102 -10
0 -5 83 7 125 4 11 -1 4 -10 -15 -10 -21 -19 -72 -22 -125 l-4 -91 28 -13 c41
-18 114 -25 154 -13 33 9 30 10 -32 11 -84 1 -118 15 -118 50 0 21 2 23 13 9
19 -24 125 -48 172 -38 l40 8 -47 1 c-54 1 -154 35 -161 55 -3 8 5 24 19 37
17 16 24 33 24 58 0 20 11 60 25 89 27 59 26 66 -5 22z"/>
<path d="M2271 1302 c-29 -23 -45 -27 -103 -29 -64 -1 -71 -4 -114 -41 l-46
-39 45 -12 c57 -14 84 -14 92 -1 4 6 3 10 -2 9 -4 -1 -23 -1 -41 0 -26 1 -33
5 -30 18 5 25 45 43 96 43 49 0 86 17 121 54 31 33 25 32 -18 -2z"/>
<path d="M1852 1226 c-12 -41 -22 -90 -22 -108 0 -19 -7 -43 -15 -54 -14 -18
-14 -18 -16 11 -1 17 0 41 1 55 4 54 -10 10 -20 -61 -6 -41 -13 -83 -16 -94
-3 -12 12 -1 39 29 43 48 44 51 50 135 3 47 11 101 18 119 6 18 9 35 7 38 -3
2 -15 -29 -26 -70z"/>
<path d="M1967 1160 c-15 -12 -27 -25 -27 -29 0 -16 154 -58 163 -44 3 4 -5 9
-16 9 -37 2 -99 33 -92 44 4 7 30 11 59 9 89 -3 114 4 41 11 -38 4 -77 10 -86
14 -9 4 -26 -2 -42 -14z"/>
<path d="M1752 1100 c-6 -22 -12 -59 -11 -82 1 -37 3 -33 15 32 16 87 14 108
-4 50z"/>
<path d="M1822 994 c-18 -20 -32 -38 -32 -40 0 -10 62 -34 87 -33 28 1 28 1
-5 10 -38 11 -50 32 -32 55 11 12 26 14 77 8 35 -3 80 -2 101 2 33 7 27 9 -48
15 -47 4 -92 10 -100 13 -11 4 -27 -6 -48 -30z"/>
<path d="M1692 931 c-11 -23 -17 -41 -12 -41 10 0 43 70 37 77 -3 3 -15 -14
-25 -36z"/>
<path d="M1735 910 c-32 -33 -28 -39 10 -14 20 13 31 14 56 5 18 -6 55 -10 83
-10 l51 2 -55 6 c-31 3 -68 14 -83 24 -14 9 -28 17 -30 17 -2 0 -16 -13 -32
-30z"/>
<path d="M2333 1126 c-14 -17 -7 -26 22 -26 29 0 37 10 24 27 -14 16 -31 16
-46 -1z"/>
<path d="M716 949 c25 -29 91 -59 129 -59 l30 0 -30 17 c-125 69 -165 82 -129
42z"/>
<path d="M1160 770 c-13 -11 -29 -20 -35 -20 -15 0 -25 -32 -25 -82 0 -52 14
-48 35 10 10 26 26 62 37 80 23 37 20 40 -12 12z"/>
<path d="M1276 737 c-32 -30 -46 -51 -46 -69 0 -15 -5 -28 -12 -30 -9 -3 -9
-6 -1 -11 7 -4 23 11 40 39 15 25 41 61 57 80 40 48 18 42 -38 -9z"/>
<path d="M974 739 c-53 -42 -53 -42 -19 -33 17 4 38 7 48 6 12 0 17 7 17 29 0
16 -2 29 -4 29 -2 0 -21 -14 -42 -31z"/>
<path d="M1247 613 c-26 -30 -45 -58 -42 -62 4 -3 11 3 17 13 6 11 25 33 42
50 17 16 31 36 32 43 1 7 2 13 1 13 -1 0 -24 -26 -50 -57z"/>
<path d="M1436 584 c-3 -9 -6 -24 -6 -33 0 -10 -11 -30 -25 -45 -13 -14 -21
-26 -16 -26 17 0 50 47 56 83 7 38 2 50 -9 21z"/>
<path d="M1262 568 c-16 -16 -15 -39 2 -60 18 -24 42 -22 60 4 20 28 20 33 0
52 -18 19 -45 21 -62 4z m57 -17 c15 -27 -11 -60 -36 -45 -23 14 -29 44 -11
55 21 14 37 10 47 -10z"/>
<path d="M2260 961 c-14 -5 -47 -22 -74 -40 -47 -29 -48 -31 -21 -31 34 0 105
33 130 60 20 22 11 25 -35 11z"/>
<path d="M1678 765 c18 -15 43 -48 56 -73 24 -47 76 -105 76 -85 0 6 -7 16
-15 23 -8 7 -15 25 -15 39 0 31 -46 80 -100 106 l-35 16 33 -26z"/>
<path d="M1750 766 c0 -3 12 -18 27 -33 14 -15 22 -21 18 -13 -8 13 -6 13 7 2
11 -9 18 -10 23 -2 9 15 -3 30 -25 30 -10 0 -22 5 -25 10 -6 10 -25 14 -25 6z"/>
<path d="M1862 702 c18 -39 36 -68 40 -66 16 10 8 82 -12 105 -12 15 -19 19
-20 10 0 -11 -5 -10 -20 4 -16 14 -13 4 12 -53z"/>
<path d="M1701 677 c27 -51 99 -131 99 -111 0 6 -15 25 -34 43 -19 18 -42 50
-51 71 -10 21 -23 41 -30 44 -7 2 0 -19 16 -47z"/>
<path d="M1563 571 c4 -30 14 -52 33 -70 l27 -26 -23 31 c-12 18 -23 46 -25
63 -1 18 -6 35 -10 39 -4 4 -5 -13 -2 -37z"/>
<path d="M1688 569 c-23 -13 -23 -42 -1 -60 15 -13 15 -12 4 9 -17 31 2 56 37
47 15 -4 21 -2 17 5 -8 13 -35 12 -57 -1z"/>
</g>
</svg>
