<svg width="16" height="16" viewBox="0 0 16 16" fill="none" xmlns="http://www.w3.org/2000/svg">
<path fill-rule="evenodd" clip-rule="evenodd" d="M13.2 6.78672C12.9934 4.66672 11.74 1.33337 7.86673 1.33337C3.99339 1.33337 2.74005 4.66672 2.53339 6.78672C1.80839 7.06187 1.33017 7.75794 1.33339 8.53337V9.46672C1.33339 10.4977 2.16914 11.3334 3.20005 11.3334C4.23098 11.3334 5.06673 10.4976 5.06673 9.46672V8.53337C5.06336 7.77466 4.60273 7.09291 3.90005 6.80672C4.03339 5.58003 4.68673 2.66672 7.86673 2.66672C11.0467 2.66672 11.6934 5.58003 11.8267 6.80672C11.1255 7.09353 10.6672 7.77575 10.6667 8.53337V9.46672C10.6682 9.81796 10.7683 10.1617 10.9557 10.4588C11.1432 10.7558 11.4103 10.9942 11.7267 11.1467C11.4467 11.6734 10.7334 12.3867 8.98005 12.6C8.62958 12.0678 7.95148 11.858 7.36167 12.0993C6.77189 12.3406 6.43523 12.9655 6.55823 13.5907C6.68123 14.216 7.22948 14.6667 7.86673 14.6667C8.11365 14.6653 8.35534 14.5954 8.56486 14.4648C8.77438 14.3341 8.9435 14.1478 9.05339 13.9267C11.9134 13.6 12.8267 12.1267 13.1134 11.26C13.8889 11.0088 14.4105 10.2819 14.4 9.46672V8.53337C14.4033 7.75794 13.925 7.06187 13.2 6.78672ZM3.73339 9.46672C3.73339 9.76125 3.49461 10 3.20005 10C2.90548 10 2.66673 9.76128 2.66673 9.46672V8.53337C2.6662 8.46299 2.67959 8.3932 2.70615 8.32802C2.73271 8.26284 2.77191 8.20357 2.82149 8.15361C2.87107 8.10365 2.93004 8.064 2.99502 8.03694C3.05999 8.00988 3.12968 7.99595 3.20006 7.99595C3.27045 7.99595 3.34013 8.00988 3.40511 8.03694C3.47008 8.064 3.52906 8.10365 3.57863 8.15361C3.62821 8.20357 3.66741 8.26284 3.69397 8.32802C3.72053 8.3932 3.73393 8.46299 3.73339 8.53337V9.46672ZM12 8.53337C12 8.23881 12.2388 8.00003 12.5334 8.00003C12.828 8.00003 13.0667 8.23881 13.0667 8.53337V9.46672C13.0667 9.76125 12.828 10 12.5334 10C12.2388 10 12 9.76128 12 9.46672V8.53337Z" fill="black"/>
</svg>
